<svg width="104" height="107" viewBox="0 0 104 107" fill="none" xmlns="http://www.w3.org/2000/svg">
<path d="M35.6754 80.9529C35.2737 81.1938 34.9124 81.234 34.5911 81.0733C34.2698 80.993 33.8883 80.973 33.4465 81.0131C33.326 80.8926 33.2256 80.7119 33.1453 80.471C33.065 80.3103 32.9445 80.1497 32.7839 79.989C32.7036 79.8284 32.563 79.6878 32.3622 79.5674C32.1615 79.4469 31.9606 79.2863 31.7598 79.0854C31.6394 78.965 31.539 78.8244 31.4586 78.6638C31.3783 78.5032 31.2779 78.3626 31.1574 78.2421C30.8361 77.9208 30.5149 77.5996 30.1936 77.2783C29.8322 76.9971 29.4506 76.6558 29.0491 76.2542C28.8483 76.0534 28.6475 75.8526 28.4467 75.6518C28.2459 75.5313 28.1053 75.3105 28.025 74.9892C27.6234 74.7482 27.2017 74.4872 26.76 74.2061C26.3182 74.0053 25.8965 73.7041 25.495 73.3025C25.4548 72.9411 25.515 72.5997 25.6757 72.2784C25.8765 71.9973 25.9367 71.6961 25.8564 71.3748C26.1777 70.9732 26.5592 70.5516 27.0009 70.1098C27.4829 69.7082 27.9045 69.2464 28.266 68.7243C28.3864 68.6038 28.4868 68.4633 28.5671 68.3026C28.7278 68.142 28.8683 68.0014 28.9888 67.881C29.1093 67.6802 29.2097 67.4994 29.29 67.3388C29.4105 67.138 29.5511 66.9573 29.7117 66.7967C29.8322 66.6762 29.9727 66.5758 30.1334 66.4955C30.3341 66.375 30.4948 66.2545 30.6153 66.134C30.8161 65.9332 30.9767 65.6923 31.0972 65.4112C31.298 65.13 31.4988 64.8891 31.6996 64.6883C31.9807 64.4072 32.2417 64.1863 32.4827 64.0257C32.7237 63.865 32.9445 63.6843 33.1453 63.4835C33.5871 63.0417 34.0087 62.5799 34.4104 62.098C34.8521 61.5759 35.2938 61.094 35.7356 60.6523C35.9364 60.4514 36.1573 60.2708 36.3982 60.1101C36.6794 59.9093 36.9203 59.7085 37.1211 59.5077C37.2817 59.3471 37.3821 59.2065 37.4223 59.086C37.5026 58.9254 37.5829 58.7648 37.6633 58.6041C38.0247 58.082 38.2857 57.7809 38.4464 57.7005C38.6472 57.6604 38.848 57.58 39.0488 57.4596C39.1291 57.3792 39.2495 57.2186 39.4102 56.9777C39.611 56.6966 39.852 56.4556 40.1331 56.2548C40.5347 55.8532 41.0568 55.3311 41.6993 54.6886C42.4222 54.046 43.0447 53.4637 43.5667 52.9416C43.8478 52.6605 44.1289 52.4196 44.4101 52.2188C44.7313 52.0581 44.892 51.7369 44.892 51.2549C45.8558 50.6124 46.5787 50.0903 47.0606 49.6887C47.5425 49.2871 48.1248 48.6245 48.8075 47.7008C49.0886 47.741 49.2894 47.6607 49.4099 47.4599C49.5705 47.2993 49.7513 47.1587 49.9521 47.0382C50.5946 46.476 51.2171 45.8535 51.8195 45.1708C52.1809 44.8094 52.5423 44.4881 52.9038 44.207C53.2652 43.9258 53.5865 43.6046 53.8676 43.2431C54.1086 43.0022 54.2491 42.8215 54.2893 42.701C54.3295 42.5805 54.4097 42.5002 54.5302 42.46C55.2531 41.5765 55.8957 40.8938 56.4579 40.4119C57.0603 39.9702 57.5823 39.5284 58.0241 39.0866C58.2249 38.8858 58.3856 38.685 58.506 38.4842C58.6265 38.2835 58.7872 38.1228 58.9879 38.0023C59.269 37.7212 59.51 37.4803 59.7108 37.2795C59.9518 37.1188 60.2128 36.8578 60.4939 36.4963C60.9758 36.0144 61.4979 35.4924 62.0601 34.9301C62.6224 34.3679 62.9035 33.8056 62.9035 33.2434C63.2649 33.2032 63.5461 33.0025 63.7468 32.641C63.9476 32.2796 64.1685 32.0186 64.4095 31.8579C64.5299 31.7374 64.7508 31.5166 65.0721 31.1953C65.4336 30.9142 65.7548 30.6732 66.0359 30.4724C66.1564 30.3519 66.297 30.2515 66.4576 30.1712C66.6182 30.0909 66.7387 30.0106 66.819 29.9303C67.0198 29.7295 67.1805 29.4484 67.301 29.0869C67.4616 28.6853 67.8029 28.4243 68.325 28.3038C68.4455 27.9424 68.5057 27.601 68.5057 27.2797C68.5459 26.9986 68.6865 26.7778 68.9274 26.6171C69.329 26.2958 69.7507 26.1954 70.1924 26.3159C70.6743 26.4766 71.1563 26.7175 71.6382 27.0388C71.8791 27.2797 72.0598 27.3801 72.1803 27.34C72.341 27.34 72.4614 27.3801 72.5418 27.4605C72.7024 27.6211 72.8028 27.8018 72.843 28.0026C72.9634 28.2034 73.0638 28.3841 73.1442 28.5448C73.345 28.8259 73.5859 29.107 73.867 29.3881C74.1883 29.6291 74.3088 29.87 74.2285 30.111C74.5899 30.3921 74.9313 30.6532 75.2525 30.8941C75.6541 31.1351 76.0155 31.4162 76.3368 31.7374C76.4573 31.8579 76.5175 31.9985 76.5175 32.1591C76.5577 32.2796 76.6581 32.4202 76.8187 32.5808C76.8991 32.7414 77.0195 32.8217 77.1802 32.8218C77.381 32.8619 77.5015 32.9824 77.5416 33.1832C77.5818 33.5446 77.6621 33.8659 77.7826 34.147C77.9031 34.4281 78.0235 34.7092 78.144 34.9904C78.0637 35.3116 77.883 35.6128 77.6019 35.8939C77.401 36.175 77.1802 36.4763 76.9392 36.7975C76.6581 37.0787 76.377 37.3598 76.0959 37.6409C75.8951 37.922 75.6742 38.183 75.4332 38.424C75.0718 38.7051 74.7104 38.9461 74.3489 39.1469C74.0277 39.3878 73.7064 39.6689 73.3851 39.9902C72.9835 40.3115 72.6622 40.6729 72.4213 41.0745C72.2607 41.4761 71.9394 41.7171 71.4575 41.7974C71.2968 42.1187 71.1764 42.3596 71.096 42.5203C71.0559 42.7211 70.8551 42.8415 70.4936 42.8817C70.3732 43.4038 70.1522 43.7853 69.831 44.0262C69.5098 44.2672 69.1483 44.5885 68.7467 44.9901C68.4254 45.3114 68.064 45.6728 67.6624 46.0744C67.301 46.4358 66.8993 46.7972 66.4576 47.1587C66.056 47.5603 65.7548 47.8213 65.554 47.9418C65.3934 48.0221 65.2729 48.1024 65.1926 48.1827C64.8311 48.7851 64.4496 49.2871 64.048 49.6887C63.6866 50.0502 63.4456 50.4518 63.3252 50.8935C62.8433 51.2148 62.5421 51.4759 62.4216 51.6766C62.3412 51.8372 62.261 51.9577 62.1806 52.0381C61.9798 52.2389 61.7589 52.4195 61.518 52.5802C61.3172 52.7007 61.1365 52.8814 60.9758 53.1224C60.9357 53.3232 60.7951 53.5038 60.5542 53.6645C60.3935 53.8251 60.253 54.0059 60.1325 54.2067C59.6104 54.5681 59.2891 54.8492 59.1687 55.05C59.1285 55.2508 59.0281 55.4315 58.8675 55.5922C58.6667 55.793 58.4056 55.9737 58.0844 56.1343C57.8032 56.2548 57.5623 56.4154 57.3615 56.6162C57.1205 56.9375 56.9197 57.1383 56.7591 57.2186C56.5985 57.299 56.4378 57.3792 56.2772 57.4596C56.1969 57.7005 56.0563 57.9214 55.8555 58.1222C55.735 58.323 55.6346 58.5439 55.5543 58.7848C55.4338 59.066 55.2732 59.2266 55.0724 59.2668C54.9118 59.3471 54.7311 59.4876 54.5302 59.6884C54.3294 59.8892 54.1688 60.1302 54.0483 60.4113C53.9278 60.6924 53.8074 60.9334 53.6869 61.1342C53.4861 61.335 53.2652 61.5157 53.0243 61.6763C52.7833 61.837 52.5624 62.0177 52.3616 62.2185C51.7994 62.7004 51.3175 63.2626 50.9159 63.9052C50.5545 64.5076 50.1127 64.9895 49.5906 65.3509C49.3898 65.5517 49.1489 65.7124 48.8678 65.8328C48.667 65.9533 48.4662 66.1139 48.2654 66.3147C48.1047 66.4754 47.9642 66.6561 47.8437 66.8569C47.8035 67.0577 47.7032 67.2786 47.5425 67.5195C47.2614 67.9613 46.8196 68.4432 46.2172 68.9653C45.655 69.5275 45.0928 70.0897 44.5305 70.652C43.7675 71.3347 42.9643 72.0575 42.121 72.8206C41.3178 73.5434 40.6551 74.2864 40.1331 75.0494C39.4503 76.0534 38.8279 76.7964 38.2657 77.2783C37.7035 77.7602 37.2215 78.2421 36.8199 78.724C36.7396 78.8846 36.6392 79.0654 36.5187 79.2662C36.4786 79.467 36.3982 79.6678 36.2778 79.8686C36.077 80.23 35.9364 80.491 35.8561 80.6517C35.8159 80.7721 35.7557 80.8725 35.6754 80.9529Z" fill="white"/>
<path d="M79.6814 70.6473C79.9223 71.0489 79.9625 71.4103 79.8019 71.7316C79.7215 72.0529 79.7015 72.4343 79.7416 72.8761C79.6211 72.9966 79.4404 73.097 79.1995 73.1773C79.0388 73.2576 78.8782 73.3781 78.7176 73.5387C78.5569 73.6191 78.4164 73.7596 78.2959 73.9604C78.1754 74.1612 78.0148 74.362 77.814 74.5628C77.6935 74.6833 77.5529 74.7837 77.3923 74.864C77.2317 74.9443 77.0911 75.0447 76.9706 75.1652C76.6493 75.4865 76.3281 75.8077 76.0068 76.129C75.7256 76.4905 75.3843 76.872 74.9827 77.2736C74.7819 77.4744 74.5811 77.6752 74.3803 77.876C74.2598 78.0767 74.039 78.2173 73.7177 78.2976C73.4768 78.6992 73.2157 79.1209 72.9346 79.5627C72.7338 80.0044 72.4326 80.4261 72.031 80.8277C71.6696 80.8679 71.3282 80.8076 71.0069 80.647C70.7258 80.4462 70.4246 80.3859 70.1034 80.4662C69.7018 80.145 69.2801 79.7635 68.8383 79.3217C68.4367 78.8398 67.9749 78.4181 67.4528 78.0567C67.3323 77.9362 67.1918 77.8358 67.0312 77.7555C66.8705 77.5949 66.73 77.4543 66.6095 77.3338C66.4087 77.2133 66.228 77.1129 66.0673 77.0326C65.8665 76.9121 65.6858 76.7716 65.5252 76.6109C65.4047 76.4905 65.3043 76.3499 65.224 76.1893C65.1035 75.9885 64.983 75.8278 64.8625 75.7073C64.6617 75.5065 64.4208 75.3459 64.1397 75.2254C63.8586 75.0246 63.6176 74.8239 63.4168 74.623C63.1357 74.3419 62.9148 74.0809 62.7542 73.8399C62.5935 73.599 62.4128 73.3781 62.212 73.1773C61.7702 72.7355 61.3084 72.3139 60.8265 71.9123C60.3044 71.4705 59.8225 71.0288 59.3808 70.587C59.18 70.3862 58.9993 70.1654 58.8386 69.9244C58.6378 69.6433 58.437 69.4023 58.2362 69.2015C58.0756 69.0409 57.935 68.9405 57.8146 68.9003C57.6539 68.82 57.4933 68.7397 57.3326 68.6594C56.8106 68.2979 56.5094 68.0369 56.4291 67.8763C56.3889 67.6755 56.3086 67.4746 56.1881 67.2739C56.1078 67.1935 55.9472 67.0731 55.7062 66.9124C55.4251 66.7116 55.1841 66.4707 54.9833 66.1896C54.5817 65.788 54.0596 65.2659 53.4171 64.6233C52.7745 63.9005 52.1922 63.278 51.6702 62.7559C51.3891 62.4748 51.1481 62.1937 50.9473 61.9126C50.7866 61.5913 50.4654 61.4307 49.9835 61.4307C49.3409 60.4668 48.8189 59.744 48.4172 59.262C48.0156 58.7801 47.353 58.1978 46.4293 57.5151C46.4695 57.234 46.3892 57.0332 46.1884 56.9127C46.0278 56.7521 45.8872 56.5713 45.7667 56.3706C45.2045 55.728 44.582 55.1055 43.8993 54.5032C43.5379 54.1417 43.2166 53.7803 42.9355 53.4188C42.6543 53.0574 42.3331 52.7362 41.9716 52.455C41.7307 52.2141 41.55 52.0735 41.4295 52.0333C41.309 51.9932 41.2287 51.9129 41.1885 51.7924C40.305 51.0695 39.6223 50.4269 39.1404 49.8647C38.6987 49.2624 38.2569 48.7403 37.8151 48.2985C37.6143 48.0977 37.4135 47.9371 37.2128 47.8166C37.012 47.6961 36.8513 47.5355 36.7308 47.3347C36.4497 47.0536 36.2088 46.8126 36.008 46.6118C35.8473 46.3708 35.5863 46.1098 35.2249 45.8287C34.7429 45.3468 34.2209 44.8247 33.6586 44.2625C33.0964 43.7002 32.5342 43.4191 31.9719 43.4191C31.9318 43.0577 31.731 42.7766 31.3695 42.5758C31.0081 42.375 30.7471 42.1541 30.5864 41.9132C30.466 41.7927 30.2451 41.5718 29.9238 41.2505C29.6427 40.8891 29.4017 40.5678 29.2009 40.2867C29.0805 40.1662 28.9801 40.0257 28.8997 39.865C28.8194 39.7044 28.7391 39.5839 28.6588 39.5036C28.458 39.3028 28.1769 39.1422 27.8154 39.0217C27.4138 38.861 27.1528 38.5197 27.0323 37.9976C26.6709 37.8771 26.3295 37.8169 26.0083 37.8169C25.7271 37.7767 25.5063 37.6362 25.3456 37.3952C25.0244 36.9936 24.924 36.572 25.0444 36.1302C25.2051 35.6483 25.446 35.1664 25.7673 34.6845C26.0083 34.4435 26.1087 34.2628 26.0685 34.1423C26.0685 33.9817 26.1087 33.8612 26.189 33.7809C26.3496 33.6202 26.5303 33.5198 26.7311 33.4797C26.9319 33.3592 27.1126 33.2588 27.2733 33.1785C27.5544 32.9777 27.8355 32.7367 28.1166 32.4556C28.3576 32.1343 28.5985 32.0139 28.8395 32.0942C29.1206 31.7327 29.3817 31.3914 29.6226 31.0701C29.8636 30.6685 30.1447 30.3071 30.466 29.9858C30.5864 29.8653 30.727 29.8051 30.8876 29.8051C31.0081 29.7649 31.1487 29.6645 31.3093 29.5039C31.4699 29.4236 31.5502 29.3031 31.5503 29.1425C31.5904 28.9417 31.7109 28.8212 31.9117 28.781C32.2732 28.7408 32.5944 28.6606 32.8755 28.5401C33.1567 28.4196 33.4377 28.2991 33.7189 28.1786C34.0402 28.2589 34.3413 28.4397 34.6225 28.7208C34.9036 28.9216 35.2048 29.1424 35.5261 29.3834C35.8072 29.6645 36.0883 29.9456 36.3694 30.2268C36.6505 30.4276 36.9116 30.6484 37.1525 30.8894C37.4336 31.2508 37.6746 31.6122 37.8754 31.9737C38.1163 32.2949 38.3974 32.6162 38.7187 32.9375C39.04 33.3391 39.4014 33.6604 39.803 33.9013C40.2046 34.062 40.4456 34.3833 40.5259 34.8652C40.8472 35.0258 41.0882 35.1463 41.2488 35.2266C41.4496 35.2668 41.57 35.4676 41.6102 35.829C42.1323 35.9495 42.5138 36.1704 42.7548 36.4916C42.9957 36.8129 43.317 37.1744 43.7186 37.5759C44.0399 37.8972 44.4013 38.2587 44.8029 38.6602C45.1643 39.0217 45.5258 39.4233 45.8872 39.865C46.2888 40.2666 46.5498 40.5679 46.6703 40.7686C46.7506 40.9292 46.8309 41.0497 46.9113 41.1301C47.5137 41.4915 48.0157 41.873 48.4172 42.2746C48.7787 42.636 49.1803 42.877 49.622 42.9975C49.9433 43.4794 50.2044 43.7806 50.4051 43.9011C50.5658 43.9814 50.6862 44.0617 50.7666 44.142C50.9674 44.3428 51.1481 44.5637 51.3087 44.8046C51.4292 45.0054 51.6099 45.1861 51.8509 45.3468C52.0517 45.3869 52.2324 45.5275 52.393 45.7685C52.5536 45.9291 52.7344 46.0697 52.9352 46.1901C53.2966 46.7123 53.5778 47.0335 53.7785 47.154C53.9793 47.1941 54.1601 47.2945 54.3207 47.4552C54.5215 47.656 54.7022 47.917 54.8628 48.2383C54.9833 48.5194 55.1439 48.7603 55.3447 48.9611C55.666 49.2021 55.8668 49.4029 55.9471 49.5635C56.0275 49.7242 56.1078 49.8848 56.1881 50.0455C56.4291 50.1257 56.6499 50.2663 56.8507 50.4671C57.0515 50.5876 57.2724 50.688 57.5134 50.7683C57.7945 50.8888 57.9551 51.0494 57.9953 51.2502C58.0756 51.4109 58.2161 51.5916 58.4169 51.7924C58.6178 51.9932 58.8587 52.1538 59.1398 52.2743C59.421 52.3948 59.6619 52.5153 59.8627 52.6357C60.0635 52.8366 60.2442 53.0574 60.4048 53.2984C60.5655 53.5393 60.7462 53.7602 60.947 53.961C61.4289 54.5232 61.9912 55.0052 62.6337 55.4067C63.2361 55.7682 63.718 56.2099 64.0794 56.732C64.2802 56.9328 64.4409 57.1737 64.5613 57.4549C64.6818 57.6556 64.8424 57.8565 65.0433 58.0573C65.2039 58.2179 65.3846 58.3585 65.5854 58.4789C65.7862 58.5191 66.0071 58.6195 66.248 58.7801C66.6898 59.0612 67.1717 59.503 67.6938 60.1054C68.256 60.6676 68.8182 61.2298 69.3805 61.7921C70.0632 62.5551 70.786 63.3583 71.5491 64.2017C72.272 65.0048 73.0149 65.6675 73.7779 66.1896C74.7819 66.8723 75.5249 67.4948 76.0068 68.057C76.4887 68.6192 76.9706 69.1011 77.4525 69.5027C77.6132 69.583 77.7939 69.6834 77.9947 69.8039C78.1955 69.8441 78.3963 69.9244 78.5971 70.0449C78.9585 70.2456 79.2196 70.3862 79.3802 70.4665C79.5007 70.5067 79.601 70.5669 79.6814 70.6473Z" fill="white"/>
<path d="M103.966 57.1277C103.966 58.9137 103.743 60.7442 103.296 62.6194C102.938 64.4054 102.536 66.102 102.088 67.7094C101.999 67.9773 101.954 68.2452 101.954 68.513C101.954 68.7809 101.909 69.0041 101.82 69.1828C101.731 69.4507 101.552 69.7186 101.283 69.9864C101.105 70.2543 100.97 70.5222 100.881 70.7901C100.613 71.8617 100.479 72.7993 100.479 73.603C100.568 74.4066 100.434 75.2103 100.076 76.014C99.6289 76.7284 99.316 77.1748 99.1371 77.3534C98.9582 77.5321 98.7794 77.8445 98.6005 78.2911C98.1533 79.0055 97.7956 79.6305 97.5273 80.1663C97.259 80.6128 96.9459 80.9253 96.5882 81.1039C96.5882 81.2825 96.5435 81.5057 96.4541 81.7736C96.3647 81.9523 96.3647 82.2202 96.4541 82.5773C95.7386 83.1131 95.2467 83.7828 94.9784 84.5865C94.7995 85.3009 94.3971 86.0152 93.7711 86.7296C93.2345 87.3547 92.8768 87.8012 92.6979 88.0691C92.6085 88.2477 92.4743 88.4262 92.2954 88.6048C92.0271 88.8727 91.7588 89.0959 91.4905 89.2746C91.2222 89.3638 90.9539 89.5425 90.6856 89.8104C89.9701 90.7033 89.3441 91.373 88.8075 91.8195C88.2709 92.2661 87.9132 92.8018 87.7343 93.4269C87.1083 93.6055 86.6611 93.8287 86.3928 94.0966C85.6773 94.6324 85.2748 95.0342 85.1854 95.3021C85.096 95.4807 84.9619 95.6147 84.783 95.7039C84.2464 96.1505 83.7992 96.4184 83.4415 96.5076C83.0838 96.5969 82.8155 96.7308 82.6366 96.9095C82.1 97.356 81.3845 97.8024 80.4902 98.2489C79.5959 98.6061 78.8804 99.0526 78.3438 99.5884C77.36 100.035 76.6892 100.437 76.3315 100.794C76.0632 101.062 75.7502 101.285 75.3925 101.464C74.9453 101.731 74.4534 101.91 73.9168 101.999C73.4696 102.089 73.1567 102.401 72.9778 102.937C71.8152 103.294 70.8761 103.607 70.1606 103.875C69.5346 104.232 68.7297 104.455 67.7459 104.544C67.2987 104.991 66.4492 105.348 65.197 105.616C64.0344 105.973 62.9612 106.196 61.9774 106.286C61.5302 106.286 61.0831 106.241 60.6359 106.152C60.1887 106.152 59.7416 106.152 59.2944 106.152C58.7578 106.241 58.2212 106.375 57.6846 106.554C57.2374 106.821 56.7903 106.955 56.3431 106.955C55.9854 107.045 55.6276 107 55.2699 106.821C55.0016 106.643 54.6439 106.464 54.1967 106.286C53.2129 106.375 52.408 106.464 51.782 106.554C51.156 106.732 50.5747 106.821 50.0381 106.821C49.5015 106.911 48.9201 106.911 48.2941 106.821C47.7575 106.732 47.2657 106.643 46.8185 106.554C46.6395 106.732 46.1925 106.732 45.477 106.554C44.851 106.464 44.4485 106.33 44.2696 106.152C43.6436 106.598 43.0175 106.643 42.3915 106.286C41.7655 105.928 41.1394 105.661 40.5134 105.482C39.6191 105.214 38.7247 105.08 37.8304 105.08C37.0255 105.169 36.2653 104.901 35.5498 104.276C33.4928 104.276 32.0172 103.741 31.1229 102.669C29.8708 102.401 29.0659 102.178 28.7082 101.999C28.3505 101.821 27.948 101.598 27.5008 101.33C27.1431 100.973 26.8301 100.749 26.5618 100.66C26.2935 100.481 26.0252 100.258 25.7569 99.9902C25.3097 99.633 24.952 99.4097 24.6837 99.3205C24.5048 99.2312 24.326 99.0973 24.1471 98.9186C23.8788 98.6507 23.6105 98.3382 23.3422 97.981C23.1632 97.6239 22.9397 97.356 22.6714 97.1773C22.2242 97.1773 21.8217 97.0881 21.464 96.9095C21.1957 96.6416 20.838 96.2844 20.3908 95.8379C19.9436 95.4807 19.407 95.0789 18.781 94.6324C18.2444 94.0966 17.8867 93.5608 17.7078 93.025C17.1712 92.8464 16.6346 92.6679 16.098 92.4893C15.5614 92.3106 15.159 92.0427 14.8907 91.6856C14.1752 90.9712 13.5939 90.3908 13.1467 89.9443C12.6995 89.4978 12.3418 89.0514 12.0735 88.6048C11.6263 87.6225 11.2686 86.9975 11.0003 86.7296C10.732 86.3725 10.419 86.0599 10.0613 85.792C9.3458 84.8097 8.76449 84.006 8.31732 83.381C7.87015 82.7559 7.51242 82.2202 7.24412 81.7736C6.88639 81.5057 6.61808 81.1932 6.43921 80.836C6.26034 80.4789 6.08148 80.1216 5.90261 79.7645C5.81318 79.3179 5.63431 78.9161 5.36601 78.5589C5.18714 78.2018 4.91884 77.9339 4.56111 77.7553C4.65054 76.9516 4.47168 76.3266 4.02451 75.88C3.66678 75.3443 3.35376 74.7638 3.08546 74.1387C2.90659 73.6922 2.77244 73.2011 2.68301 72.6654C2.68301 72.1296 2.63829 71.5491 2.54886 70.9241C2.36999 70.6562 2.19113 70.3883 2.01225 70.1204C1.83338 69.7632 1.74395 69.406 1.74395 69.0488C1.83338 68.4238 1.78867 67.9326 1.6098 67.5754C1.52037 67.2183 1.43093 66.9057 1.3415 66.6378C1.25207 66.1913 1.20735 65.7895 1.20735 65.4323C1.29678 65.0751 1.29678 64.7179 1.20735 64.3607L0.804902 62.3516C0.804902 62.0837 0.804902 61.7711 0.804902 61.4139C0.894335 60.9674 0.760185 60.655 0.402451 60.4763C0.581318 59.5834 0.670751 58.9582 0.670751 58.6011C0.491884 57.7974 0.402451 57.3509 0.402451 57.2616C0.491884 57.083 0.536601 56.9491 0.536601 56.8598C0.447168 56.1454 0.447168 55.5203 0.536601 54.9846C0.626034 54.4488 0.581318 53.7791 0.402451 52.9754C0.223583 52.6182 0.178867 52.261 0.268301 51.9038C0.447168 51.5467 0.491884 51.0555 0.402451 50.4304C0.223583 49.4481 0.0894335 48.6891 0 48.1534C0 47.6176 0.0447168 47.1711 0.13415 46.8139C0.13415 46.4567 0.178867 46.1442 0.268301 45.8763C0.447168 45.6084 0.536601 45.2958 0.536601 44.9387C0.447168 44.0457 0.447168 43.4653 0.536601 43.1974C0.626034 42.8402 0.670751 42.5723 0.670751 42.3937C0.581318 42.1258 0.491884 41.8579 0.402451 41.59C0.313018 41.3221 0.268301 41.0989 0.268301 40.9203C0.268301 40.4738 0.313018 40.0274 0.402451 39.5808C0.491884 39.0451 0.581318 38.554 0.670751 38.1075C0.849619 37.5717 0.939052 37.0359 0.939052 36.5001C0.939052 35.9643 1.02849 35.5178 1.20735 35.1607C1.92282 34.0891 2.41471 33.1962 2.68301 32.4817C3.04074 31.6781 3.35376 30.9637 3.62206 30.3386C3.97979 29.4457 4.24809 28.5526 4.42696 27.6597C4.69526 26.7668 5.18714 26.0524 5.90261 25.5166C5.99204 24.8022 6.12619 24.2218 6.30506 23.7753C6.57336 23.3288 6.79694 22.8377 6.97582 22.3019C7.42299 21.409 7.736 20.8285 7.91487 20.5606C8.18317 20.2927 8.40675 19.9356 8.58562 19.489C9.03279 18.7746 9.30109 18.2389 9.39052 17.8817C9.47995 17.4352 9.56939 17.1227 9.65882 16.9441C10.3743 16.2297 10.8662 15.6046 11.1345 15.0689C11.4922 14.4438 11.7605 13.908 11.9394 13.4615C12.8337 13.1044 13.5492 12.3899 14.0858 11.3184C14.6224 11.2291 14.9801 11.0058 15.159 10.6487C15.3379 10.2022 15.785 10.0236 16.5005 10.1129C16.6794 9.66639 17.0818 9.3092 17.7078 9.04131C17.8867 8.68413 18.0655 8.46088 18.2444 8.37158C18.5127 8.28229 18.7363 8.10369 18.9152 7.8358C19.6307 7.74651 20.2119 7.52326 20.6591 7.16608C21.1957 6.80889 21.7323 6.49635 22.2689 6.22846C22.8055 5.96057 23.3422 5.78197 23.8788 5.69268C24.5048 5.51408 25.1309 5.20155 25.7569 4.75506C26.5618 4.84435 27.1878 4.79971 27.635 4.62111C28.0822 4.35322 28.5293 4.04068 28.9765 3.6835C29.6025 3.86209 30.1838 3.86209 30.7204 3.6835C31.3464 3.5049 31.883 3.32631 32.3302 3.14772C33.0457 2.87982 33.8953 2.61193 34.8791 2.34404C35.9523 2.07615 36.9807 1.85291 37.9645 1.67432C38.68 1.49572 39.3508 1.36177 39.9768 1.27248C40.6923 1.09388 41.4077 0.870645 42.1232 0.602754C42.8387 0.42416 43.2858 0.290215 43.4647 0.200918C43.6436 0.111621 43.8224 0.0669726 44.0013 0.0669726C44.1802 -0.0223242 44.4037 -0.0223242 44.6721 0.0669726C44.9403 0.0669726 45.2086 0.0669726 45.477 0.0669726C46.1925 0.334863 46.6395 0.468809 46.8185 0.468809C46.9974 0.379512 47.1762 0.334863 47.3551 0.334863C48.2494 0.602754 48.8755 0.736699 49.2332 0.736699C50.7536 1.18319 51.9162 1.45108 52.7211 1.54037C53.526 1.62966 54.1967 1.94221 54.7333 2.47799C55.3593 2.2101 56.0748 2.1208 56.8797 2.2101C57.774 2.29939 58.5789 2.34404 59.2944 2.34404C59.7416 2.34404 60.0546 2.47799 60.2335 2.74588C60.4124 3.01377 60.6359 3.19237 60.9042 3.28166C61.888 3.28166 62.7823 3.41561 63.5872 3.6835C64.2132 3.95139 64.7052 4.08533 65.0629 4.08533C65.4206 3.99604 65.6889 3.99604 65.8678 4.08533C66.1361 4.17463 66.4044 4.30857 66.6727 4.48717C67.0304 4.57646 67.2987 4.66577 67.4776 4.75506C68.2825 5.02295 68.998 5.24619 69.624 5.42479C70.3395 5.51408 70.9208 5.91592 71.368 6.63029C71.7257 6.63029 71.9493 6.541 72.0387 6.3624C72.1281 6.09451 72.3964 6.04986 72.8436 6.22846C73.5591 6.58564 74.364 6.80889 75.2583 6.89819C76.2421 6.98748 77.1812 7.21073 78.0755 7.56791C78.8804 8.0144 79.3722 8.37158 79.5511 8.63947C79.8194 8.81807 80.043 8.95202 80.2219 9.04131C80.6691 9.21991 81.0715 9.39849 81.4292 9.57709C81.8764 9.66639 82.1447 9.93428 82.2341 10.3808C82.6813 10.3808 83.039 10.4701 83.3073 10.6487C83.665 10.7379 83.9781 10.8719 84.2464 11.0505C84.6936 11.3184 85.096 11.631 85.4537 11.9881C85.8114 12.3453 86.2139 12.7025 86.6611 13.0597C87.1977 13.6847 87.6001 14.042 87.8684 14.1312C88.2261 14.2205 88.4944 14.3099 88.6733 14.3991C88.9416 14.7563 89.1652 15.1135 89.3441 15.4707C89.523 15.7386 89.7018 16.0065 89.8807 16.2744C90.5962 16.3636 91.1328 16.5869 91.4905 16.9441C91.8482 17.3012 92.3402 17.5691 92.9662 17.7478C93.4134 18.4622 93.95 19.0872 94.576 19.623C95.202 20.3374 95.5598 20.8732 95.6492 21.2303C95.8281 21.4982 96.0069 21.7661 96.1858 22.034C96.3647 22.3019 96.4988 22.6145 96.5882 22.9716C96.6776 23.2395 96.8118 23.5521 96.9907 23.9092C97.259 24.3558 97.6167 24.9361 98.0639 25.6505C98.5111 26.2756 98.6452 27.0792 98.4663 28.0616C98.9135 28.3294 99.2265 28.7313 99.4054 29.2671C99.5843 29.8028 99.8526 30.3386 100.21 30.8744C100.657 31.5888 100.881 32.1246 100.881 32.4817C100.881 32.7496 100.926 32.9728 101.015 33.1515C101.194 33.598 101.328 34.1338 101.418 34.7588C101.597 35.3839 101.731 36.009 101.82 36.6341C101.909 37.0806 101.909 37.4377 101.82 37.7056C101.731 37.9735 101.731 38.2414 101.82 38.5093C101.999 39.4022 102.223 40.2506 102.491 41.0542C102.849 41.7687 103.251 42.483 103.698 43.1974C103.609 44.2689 103.564 45.2512 103.564 46.1442C103.653 47.0371 103.653 48.0641 103.564 49.2249C103.475 50.3857 103.519 51.6359 103.698 52.9754C103.966 54.2256 104.056 55.6096 103.966 57.1277ZM89.4782 47.7515C89.4782 47.305 89.3888 46.8586 89.2099 46.4121C89.1206 45.9655 89.0758 45.5191 89.0758 45.0726C89.0758 44.6261 89.0758 44.2243 89.0758 43.8671C89.1652 43.4206 89.1652 42.9742 89.0758 42.5276C88.9864 42.1705 88.8522 41.8579 88.6733 41.59C88.4944 41.3221 88.3157 41.0096 88.1367 40.6524C88.0473 40.2059 88.092 39.8934 88.2709 39.7148C88.5392 39.5362 88.4944 39.313 88.1367 39.0451C87.8684 38.5093 87.6001 37.8842 87.3318 37.1698C87.1529 36.4554 86.9741 35.7411 86.7952 35.0267C86.1692 34.4017 85.7668 33.9998 85.5879 33.8212C85.409 33.5533 85.2302 33.2854 85.0513 33.0175C84.5147 32.3031 84.157 31.812 83.9781 31.5441C83.8887 31.187 83.7545 30.9191 83.5756 30.7405C82.9496 30.1154 82.2341 29.5796 81.4292 29.1331C80.6243 28.5973 79.8194 28.0169 79.0145 27.3918C78.5673 27.1239 78.1649 26.856 77.8072 26.5882C77.5389 26.231 77.1812 25.8737 76.734 25.5166C75.8397 24.9808 75.2583 24.579 74.99 24.3111C74.8111 24.0432 74.6323 23.82 74.4534 23.6414C73.7379 23.2842 72.933 23.1056 72.0387 23.1056C71.1444 23.0163 70.3842 22.6145 69.7582 21.9001C68.5956 22.0787 67.4328 21.9447 66.2702 21.4982C65.1076 20.9624 63.7661 20.7392 62.2457 20.8285C61.9774 20.7392 61.7539 20.6499 61.575 20.5606C61.3961 20.382 61.1278 20.2035 60.7701 20.0248C60.0546 20.2927 59.4733 20.382 59.0261 20.2927C58.5789 20.1141 58.1318 19.9356 57.6846 19.7569C57.3269 19.6677 57.0139 19.5783 56.7456 19.489C56.4773 19.3998 56.209 19.3104 55.9407 19.2212C55.3147 19.0425 54.6886 18.864 54.0626 18.6854C53.4366 18.5067 52.8552 18.3728 52.3186 18.2835C51.5137 18.4622 50.843 18.4622 50.3064 18.2835C49.7698 18.1049 49.2779 18.0156 48.8307 18.0156C48.3835 18.0156 47.8917 18.1049 47.3551 18.2835C46.9079 18.3728 46.5054 18.4175 46.1477 18.4175C44.8062 18.0603 43.5541 17.8817 42.3915 17.8817C41.3183 17.7924 40.5134 17.6585 39.9768 17.4799C39.5296 17.3012 39.0825 17.1673 38.6353 17.078C38.2776 16.9888 37.9198 16.8101 37.5621 16.5422C37.2938 16.8994 37.0255 17.1227 36.7572 17.212C36.5783 17.3012 36.3995 17.4352 36.2206 17.6138C35.5946 17.7924 35.1026 18.1049 34.7449 18.5514C34.3872 18.9086 33.9848 19.2212 33.5376 19.489C33.0904 19.6677 32.5985 19.8462 32.0619 20.0248C31.6147 20.1141 31.1676 20.2927 30.7204 20.5606C30.5415 20.7392 30.3627 20.9178 30.1838 21.0964C30.0049 21.275 29.8261 21.4535 29.6472 21.6322C29.4683 21.8108 29.2448 21.9447 28.9765 22.034C28.7082 22.1233 28.4846 22.2572 28.3057 22.4358C27.8585 22.793 27.4561 23.1948 27.0984 23.6414C26.8301 23.9985 26.4276 24.2664 25.891 24.445C25.7121 24.8915 25.3992 25.338 24.952 25.7845C24.5943 26.231 24.2812 26.6774 24.0129 27.1239C23.6552 27.5705 23.2974 28.0169 22.9397 28.4634C22.6714 28.9099 22.2689 29.2224 21.7323 29.401C21.7323 30.1154 21.5982 30.6958 21.3299 31.1423C21.0616 31.4994 20.8827 32.0352 20.7933 32.7496C20.2567 33.464 19.899 33.9998 19.7201 34.357C19.5412 34.7141 19.3624 35.116 19.1835 35.5625C18.7363 36.5448 18.3786 37.2145 18.1103 37.5717C17.9314 37.9288 17.7526 38.2861 17.5737 38.6432C17.216 39.5362 16.9029 40.1613 16.6346 40.5185C16.2769 41.2329 16.0086 41.8132 15.8297 42.2598C15.6508 42.6169 15.472 43.2421 15.2931 44.135C15.1142 45.0279 14.8907 46.0102 14.6224 47.0818C14.4435 48.0641 14.3988 48.8678 14.4882 49.4928C14.3093 50.1178 14.2199 50.6091 14.2199 50.9662C14.3093 51.2341 14.3093 51.502 14.2199 51.7699C13.6833 53.7344 13.4598 55.3864 13.5492 56.7259C13.7281 57.976 13.9069 59.2261 14.0858 60.4763C14.1752 61.4586 14.1752 62.3962 14.0858 63.2892C13.9964 64.0928 14.041 64.8073 14.2199 65.4323C14.2199 65.7895 14.3093 66.1467 14.4882 66.5039C14.6671 66.7718 14.8459 67.0396 15.0248 67.3075C15.1142 67.7541 15.159 68.1559 15.159 68.513C15.159 68.7809 15.2484 69.1381 15.4273 69.5846C15.785 70.5669 16.0533 71.4152 16.2322 72.1296C16.4111 72.844 16.5899 73.3351 16.7688 73.603C17.0371 73.9601 17.3054 74.2727 17.5737 74.5406C17.9314 74.7192 18.2444 74.9871 18.5127 75.3443C18.781 75.7014 19.0046 76.0587 19.1835 76.4158C19.3624 76.773 19.5859 77.1748 19.8542 77.6213C20.3908 78.3357 20.7039 78.8268 20.7933 79.0947C20.9722 79.2734 21.151 79.4519 21.3299 79.6305C21.5982 79.9877 21.8665 80.3002 22.1348 80.5681C22.4925 80.7468 22.8055 81.0146 23.0739 81.3718C23.3422 81.729 23.5657 82.1308 23.7446 82.5773C24.0129 82.9345 24.2812 83.3363 24.5495 83.7828C25.891 84.4972 27.0984 85.3009 28.1716 86.1938C29.2448 86.9975 30.318 87.9351 31.3912 89.0067C32.5538 89.1853 33.6717 89.4978 34.7449 89.9443C35.9075 90.3908 36.9807 90.7927 37.9645 91.1498C38.3222 91.2391 38.68 91.373 39.0377 91.5516C39.4849 91.6409 39.932 91.7303 40.3792 91.8195C40.7369 91.8195 41.0947 91.7748 41.4524 91.6856C41.8101 91.5963 42.2126 91.5516 42.6598 91.5516C43.4647 91.6409 44.1354 91.8195 44.6721 92.0874C45.298 92.2661 45.9688 92.4446 46.6843 92.6232C47.4892 92.7125 48.2494 92.7571 48.9649 92.7571C49.6804 92.6679 50.3958 92.8018 51.1113 93.159C51.5585 92.8911 51.9162 92.7571 52.1845 92.7571C52.5422 92.7571 52.9446 92.8018 53.3918 92.8911C54.2861 92.2661 55.3147 91.9982 56.4773 92.0874C57.6399 92.1767 58.8026 92.0874 59.9652 91.8195C60.4124 91.4624 60.7253 91.2838 60.9042 91.2838C61.0831 91.2838 61.2619 91.2391 61.4408 91.1498C62.0668 90.8819 62.6034 90.614 63.0506 90.3461C63.4978 90.0782 63.9897 89.855 64.5263 89.6764C64.7946 89.5872 65.1076 89.4978 65.4653 89.4085C65.823 89.3193 66.1361 89.2299 66.4044 89.1406C66.8516 88.6048 67.2093 88.2923 67.4776 88.203C67.7459 88.1137 67.9694 88.0244 68.1484 87.9351C68.4166 87.7565 68.685 87.578 68.9533 87.3993C69.2215 87.1314 69.5793 87.0422 70.0265 87.1314C70.2948 86.5957 70.6525 86.2385 71.0997 86.0599C71.6363 85.792 72.2176 85.5688 72.8436 85.3902C73.0225 85.033 73.2013 84.8097 73.3802 84.7204C73.5591 84.5418 73.7379 84.3633 73.9168 84.1846C74.364 83.7381 74.7217 83.381 74.99 83.1131C75.2583 82.8452 75.4372 82.6666 75.5266 82.5773C76.1526 81.6844 76.8681 80.836 77.673 80.0323C77.7624 79.5858 77.8966 79.3179 78.0755 79.2287C78.3438 79.05 78.5673 78.8715 78.7462 78.6929C78.8356 78.2464 78.9698 77.8445 79.1487 77.4874C79.3276 77.0409 79.5064 76.639 79.6853 76.2819C79.8642 75.8354 80.043 75.4782 80.2219 75.2103C80.4902 74.8532 80.6243 74.4066 80.6243 73.8709C81.0715 73.6922 81.3398 73.4243 81.4292 73.0672C81.6081 72.6207 81.7869 72.1743 81.9658 71.7277C82.5024 70.7454 82.8601 70.0757 83.039 69.7186C83.3073 69.3614 83.5309 69.0488 83.7098 68.7809C83.8887 68.4238 84.0228 68.1559 84.1122 67.9773C84.2016 67.7094 84.3358 67.4415 84.5147 67.1736C84.8724 66.1913 85.1407 65.5662 85.3196 65.2984C85.4985 65.0305 85.6326 64.8073 85.722 64.6286C85.8114 64.2715 85.8114 63.9142 85.722 63.5571C85.722 63.1105 85.8114 62.6641 85.9903 62.2176C86.1692 61.8605 86.348 61.5479 86.5269 61.28C86.7952 60.9228 86.9741 60.4316 87.0635 59.8066C87.1529 59.4494 87.1083 59.0922 86.9294 58.735C86.84 58.2885 86.84 57.8421 86.9294 57.3956C87.0188 57.0384 87.1529 56.6812 87.3318 56.324C87.5107 55.9669 87.6895 55.565 87.8684 55.1185C88.0473 54.4935 88.2261 53.8683 88.405 53.2433C88.6733 52.6182 88.7627 52.1717 88.6733 51.9038C88.8522 51.2788 88.9416 50.8323 88.9416 50.5644C88.9416 50.2072 88.9416 49.9393 88.9416 49.7607C89.031 49.3142 89.1206 48.957 89.2099 48.6891C89.3888 48.4212 89.4782 48.1087 89.4782 47.7515Z" fill="white"/>
</svg>
