<svg width="97" height="86" viewBox="0 0 97 86" fill="none" xmlns="http://www.w3.org/2000/svg">
<path d="M93.75 0C94.4167 0.1667 94.8333 0.5 95 1C95.25 1.4167 95.625 1.8333 96.125 2.25C96.125 2.5 96.0417 2.7917 95.875 3.125C95.7917 3.375 95.75 3.6667 95.75 4C95.6667 4.25 95.6667 4.5417 95.75 4.875C95.8333 5.2083 95.875 5.5833 95.875 6C95.875 6.25 95.8333 6.5 95.75 6.75C95.6667 7 95.625 7.25 95.625 7.5C95.625 8.1667 95.625 8.8333 95.625 9.5C95.7083 10.1667 95.75 10.9167 95.75 11.75C95.75 12.1667 95.75 12.5833 95.75 13C95.8333 13.3333 95.75 13.7083 95.5 14.125C95.6667 14.7917 95.8333 15.5 96 16.25C96.25 16.9167 96.375 17.6667 96.375 18.5C96.0417 18.9167 95.625 19.2083 95.125 19.375C94.625 19.4583 94.25 19.7083 94 20.125C93.25 20.2083 92.4167 20.25 91.5 20.25C90.5833 20.1667 89.6667 20.2083 88.75 20.375C88.5 20.375 88.25 20.4167 88 20.5C87.6667 20.5 87.375 20.5 87.125 20.5C86.7917 20.5833 86.5 20.6667 86.25 20.75C85.9167 20.8333 85.5833 20.875 85.25 20.875C85 20.875 84.75 20.8333 84.5 20.75C84.1667 20.6667 83.875 20.625 83.625 20.625C83.2083 20.625 82.7917 20.7083 82.375 20.875C81.875 20.9583 81.4167 21 81 21C80.4167 21 79.9167 20.9583 79.5 20.875C79.0833 20.7917 78.6667 20.75 78.25 20.75C77.3333 20.75 76.4167 20.7917 75.5 20.875C74.5 20.9583 73.5417 21 72.625 21C72.2083 21 71.7917 20.9583 71.375 20.875C70.875 20.7917 70.4167 20.75 70 20.75C69.6667 20.75 69.4167 20.7917 69.25 20.875C69 20.9583 68.75 21.0417 68.5 21.125C67.5833 21.2917 67 21.3333 66.75 21.25C66.5 21.0833 66.2083 20.9583 65.875 20.875C65.7083 20.875 65.4167 20.9167 65 21C64.5 21.0833 64 21.0833 63.5 21C62.6667 21 61.5833 21 60.25 21C58.8333 20.9167 57.5833 20.875 56.5 20.875C55.9167 20.875 55.375 20.8333 54.875 20.75C54.375 20.5833 53.875 20.75 53.375 21.25C51.7083 20.9167 50.4167 20.7083 49.5 20.625C48.5833 20.5417 47.2917 20.625 45.625 20.875C45.375 20.5417 45.0833 20.4167 44.75 20.5C44.4167 20.5 44.0833 20.4583 43.75 20.375C42.5 20.2917 41.2083 20.2917 39.875 20.375C39.125 20.375 38.4167 20.3333 37.75 20.25C37.0833 20.1667 36.4167 20.1667 35.75 20.25C35.25 20.25 34.9167 20.2917 34.75 20.375C34.5833 20.4583 34.4167 20.4583 34.25 20.375C32.5833 20.5417 31.2083 20.5833 30.125 20.5C29.0417 20.3333 28.0417 20.25 27.125 20.25C26.7083 20.25 26.3333 20.2917 26 20.375C25.6667 20.4583 25.3333 20.4583 25 20.375C24.4167 20.375 23.9167 20.375 23.5 20.375C23.0833 20.2917 22.5417 20.2917 21.875 20.375C20.875 20.375 19.7917 20.375 18.625 20.375C17.4583 20.375 16.5833 20.6667 16 21.25C15.5833 20.9167 15.0833 20.8333 14.5 21C13.9167 21.1667 13.4167 21.2083 13 21.125C12.75 21.125 12.2917 21.125 11.625 21.125C10.9583 21.0417 10.375 20.9583 9.875 20.875C9.625 20.875 9.375 20.8333 9.125 20.75C8.875 20.6667 8.66667 20.625 8.5 20.625C8.08333 20.625 7.625 20.75 7.125 21C6.54167 21.25 5.91667 21.1667 5.25 20.75C4.75 21 4.33333 21.2917 4 21.625C3.66667 21.875 3.29167 21.9583 2.875 21.875C2.125 21.7917 1.58333 21.4583 1.25 20.875C0.916667 20.2083 0.666667 19.4583 0.5 18.625C0.5 18.125 0.416667 17.8333 0.25 17.75C0.0833333 17.5833 0 17.4167 0 17.25C0 16.9167 0.0833333 16.625 0.25 16.375C0.333333 16.0417 0.416667 15.75 0.5 15.5C0.583333 15 0.625 14.4583 0.625 13.875C0.541667 13.2917 0.666667 12.9167 1 12.75C0.916667 12.0833 0.833333 11.4583 0.75 10.875C0.583333 10.2083 0.5 9.5417 0.5 8.875C0.5 8.625 0.583333 8.4167 0.75 8.25C0.833333 8.0833 0.875 7.8333 0.875 7.5C0.958333 7.25 0.916667 7.0417 0.75 6.875C0.583333 6.625 0.583333 6.375 0.75 6.125C1.08333 5.7083 1.33333 5.2917 1.5 4.875C1.66667 4.4583 1.83333 4.0417 2 3.625C2.41667 3.375 2.91667 3.25 3.5 3.25C4 3.1667 4.54167 3.0833 5.125 3C5.70833 3 6.29167 3 6.875 3C7.375 2.9167 7.875 2.875 8.375 2.875C9.04167 2.9583 9.66667 3.0833 10.25 3.25C10.8333 3.3333 11.4583 3.375 12.125 3.375C12.875 3.4583 13.5833 3.4167 14.25 3.25C14.8333 3 15.4167 3.0833 16 3.5C16.5 3.3333 16.875 3.2083 17.125 3.125C17.375 2.9583 17.7083 3.0417 18.125 3.375C18.7917 2.9583 19.4167 2.7917 20 2.875C20.5833 2.9583 21.2917 3 22.125 3C22.7917 3 23.5417 3 24.375 3C25.125 3 25.9167 3.0417 26.75 3.125C27.5833 3.125 28.1667 3.1667 28.5 3.25C28.75 3.3333 28.9583 3.375 29.125 3.375C30.125 3.125 31.0417 3 31.875 3C32.625 3 33.2917 2.8333 33.875 2.5C34.7083 2.6667 35.2917 2.7083 35.625 2.625C35.875 2.5417 36.0833 2.5 36.25 2.5C36.6667 2.5 37.0833 2.5417 37.5 2.625C37.8333 2.7083 38.2083 2.7083 38.625 2.625C38.875 2.4583 39.2083 2.4167 39.625 2.5C39.9583 2.5 40.2917 2.4583 40.625 2.375C41.5417 2.5417 42.1667 2.5833 42.5 2.5C42.75 2.3333 43.0417 2.25 43.375 2.25C43.7917 2.25 44.25 2.3333 44.75 2.5C45.1667 2.6667 45.5833 2.75 46 2.75C46.5833 2.6667 47 2.6667 47.25 2.75C47.5 2.8333 47.75 2.9167 48 3C48.3333 2.8333 48.7083 2.75 49.125 2.75C49.4583 2.6667 49.7917 2.5417 50.125 2.375C50.5417 2.2083 50.875 2.2083 51.125 2.375C51.375 2.4583 51.7083 2.5 52.125 2.5C52.5417 2.5 52.9583 2.4167 53.375 2.25C53.7917 2.0833 54.1667 1.9583 54.5 1.875C54.9167 1.875 55.3333 1.9167 55.75 2C56.1667 2.0833 56.5833 2.125 57 2.125C58.0833 2.2083 59.1667 2.125 60.25 1.875C61.25 1.625 62.2083 1.5833 63.125 1.75C63.5417 1.75 63.9583 1.8333 64.375 2C64.7083 2.0833 65.0833 2.125 65.5 2.125C65.8333 2.125 66.1667 2.0833 66.5 2C66.75 1.8333 67.0833 1.7083 67.5 1.625C68.25 1.4583 69.2083 1.4167 70.375 1.5C71.5417 1.5 72.7083 1.5 73.875 1.5C75.375 1.5833 76.9583 1.6667 78.625 1.75C80.2083 1.8333 81.6667 1.75 83 1.5C84.75 1.1667 86.1667 1.0417 87.25 1.125C88.3333 1.2083 89.3333 1.2083 90.25 1.125C90.5 1.0417 90.7917 0.9583 91.125 0.875C91.375 0.7083 91.6667 0.5833 92 0.5C92.5833 0.3333 93 0.2083 93.25 0.125C93.4167 0.0417004 93.5833 0 93.75 0Z" fill="white"/>
<path d="M93.75 31.9063C94.4167 32.073 94.8333 32.4063 95 32.9063C95.25 33.323 95.625 33.7395 96.125 34.1563C96.125 34.4063 96.0417 34.698 95.875 35.0313C95.7917 35.2813 95.75 35.573 95.75 35.9063C95.6667 36.1563 95.6667 36.448 95.75 36.7813C95.8333 37.1145 95.875 37.4895 95.875 37.9063C95.875 38.1563 95.8333 38.4063 95.75 38.6563C95.6667 38.9063 95.625 39.1563 95.625 39.4063C95.625 40.073 95.625 40.7395 95.625 41.4063C95.7083 42.073 95.75 42.823 95.75 43.6563C95.75 44.0729 95.75 44.4896 95.75 44.9063C95.8333 45.2396 95.75 45.6146 95.5 46.0313C95.6667 46.6979 95.8333 47.4063 96 48.1563C96.25 48.8229 96.375 49.5729 96.375 50.4063C96.0417 50.8229 95.625 51.1146 95.125 51.2813C94.625 51.3646 94.25 51.6146 94 52.0313C93.25 52.1146 92.4167 52.1563 91.5 52.1563C90.5833 52.0729 89.6667 52.1146 88.75 52.2813C88.5 52.2813 88.25 52.3229 88 52.4063C87.6667 52.4063 87.375 52.4063 87.125 52.4063C86.7917 52.4896 86.5 52.5729 86.25 52.6563C85.9167 52.7396 85.5833 52.7813 85.25 52.7813C85 52.7813 84.75 52.7396 84.5 52.6563C84.1667 52.5729 83.875 52.5313 83.625 52.5313C83.2083 52.5313 82.7917 52.6146 82.375 52.7813C81.875 52.8646 81.4167 52.9063 81 52.9063C80.4167 52.9063 79.9167 52.8646 79.5 52.7813C79.0833 52.6979 78.6667 52.6563 78.25 52.6563C77.3333 52.6563 76.4167 52.6979 75.5 52.7813C74.5 52.8646 73.5417 52.9063 72.625 52.9063C72.2083 52.9063 71.7917 52.8646 71.375 52.7813C70.875 52.6979 70.4167 52.6563 70 52.6563C69.6667 52.6563 69.4167 52.6979 69.25 52.7813C69 52.8646 68.75 52.9479 68.5 53.0313C67.5833 53.1979 67 53.2396 66.75 53.1563C66.5 52.9896 66.2083 52.8646 65.875 52.7813C65.7083 52.7813 65.4167 52.8229 65 52.9063C64.5 52.9896 64 52.9896 63.5 52.9063C62.6667 52.9063 61.5833 52.9063 60.25 52.9063C58.8333 52.8229 57.5833 52.7812 56.5 52.7812C55.9167 52.7812 55.375 52.7396 54.875 52.6562C54.375 52.4896 53.875 52.6562 53.375 53.1562C51.7083 52.8229 50.4167 52.6146 49.5 52.5312C48.5833 52.4479 47.2917 52.5312 45.625 52.7812C45.375 52.4479 45.0833 52.3229 44.75 52.4062C44.4167 52.4062 44.0833 52.3646 43.75 52.2812C42.5 52.1979 41.2083 52.1979 39.875 52.2812C39.125 52.2812 38.4167 52.2396 37.75 52.1562C37.0833 52.0729 36.4167 52.0729 35.75 52.1562C35.25 52.1562 34.9167 52.1979 34.75 52.2812C34.5833 52.3646 34.4167 52.3646 34.25 52.2812C32.5833 52.4479 31.2083 52.4896 30.125 52.4062C29.0417 52.2396 28.0417 52.1562 27.125 52.1562C26.7083 52.1562 26.3333 52.1979 26 52.2812C25.6667 52.3646 25.3333 52.3646 25 52.2812C24.4167 52.2812 23.9167 52.2812 23.5 52.2812C23.0833 52.1979 22.5417 52.1979 21.875 52.2812C20.875 52.2812 19.7917 52.2812 18.625 52.2812C17.4583 52.2812 16.5833 52.5729 16 53.1562C15.5833 52.8229 15.0833 52.7396 14.5 52.9062C13.9167 53.0729 13.4167 53.1146 13 53.0312C12.75 53.0312 12.2917 53.0312 11.625 53.0312C10.9583 52.9479 10.375 52.8646 9.875 52.7812C9.625 52.7812 9.375 52.7396 9.125 52.6562C8.875 52.5729 8.66667 52.5312 8.5 52.5312C8.08333 52.5312 7.625 52.6562 7.125 52.9062C6.54167 53.1562 5.91667 53.0729 5.25 52.6562C4.75 52.9062 4.33333 53.1979 4 53.5312C3.66667 53.7812 3.29167 53.8646 2.875 53.7813C2.125 53.6979 1.58333 53.3646 1.25 52.7812C0.916667 52.1146 0.666667 51.3646 0.5 50.5312C0.5 50.0312 0.416667 49.7396 0.25 49.6562C0.0833333 49.4896 0 49.3229 0 49.1562C0 48.8229 0.0833333 48.5312 0.25 48.2812C0.333333 47.9479 0.416667 47.6562 0.5 47.4062C0.583333 46.9062 0.625 46.3646 0.625 45.7812C0.541667 45.1979 0.666667 44.8229 1 44.6562C0.916667 43.9896 0.833333 43.3645 0.75 42.7812C0.583333 42.1145 0.5 41.448 0.5 40.7812C0.5 40.5312 0.583333 40.323 0.75 40.1562C0.833333 39.9895 0.875 39.7395 0.875 39.4062C0.958333 39.1562 0.916667 38.948 0.75 38.7812C0.583333 38.5312 0.583333 38.2812 0.75 38.0312C1.08333 37.6145 1.33333 37.198 1.5 36.7812C1.66667 36.3645 1.83333 35.948 2 35.5312C2.41667 35.2812 2.91667 35.1562 3.5 35.1562C4 35.073 4.54167 34.9895 5.125 34.9062C5.70833 34.9062 6.29167 34.9062 6.875 34.9062C7.375 34.823 7.875 34.7812 8.375 34.7812C9.04167 34.8645 9.66667 34.9895 10.25 35.1562C10.8333 35.2395 11.4583 35.2812 12.125 35.2812C12.875 35.3645 13.5833 35.323 14.25 35.1562C14.8333 34.9062 15.4167 34.9895 16 35.4062C16.5 35.2395 16.875 35.1145 17.125 35.0312C17.375 34.8645 17.7083 34.948 18.125 35.2812C18.7917 34.8645 19.4167 34.698 20 34.7812C20.5833 34.8645 21.2917 34.9062 22.125 34.9062C22.7917 34.9062 23.5417 34.9062 24.375 34.9062C25.125 34.9062 25.9167 34.948 26.75 35.0312C27.5833 35.0312 28.1667 35.073 28.5 35.1562C28.75 35.2395 28.9583 35.2812 29.125 35.2812C30.125 35.0312 31.0417 34.9062 31.875 34.9062C32.625 34.9062 33.2917 34.7395 33.875 34.4062C34.7083 34.573 35.2917 34.6145 35.625 34.5312C35.875 34.448 36.0833 34.4062 36.25 34.4062C36.6667 34.4062 37.0833 34.448 37.5 34.5312C37.8333 34.6145 38.2083 34.6145 38.625 34.5312C38.875 34.3645 39.2083 34.323 39.625 34.4062C39.9583 34.4062 40.2917 34.3645 40.625 34.2812C41.5417 34.448 42.1667 34.4895 42.5 34.4062C42.75 34.2395 43.0417 34.1562 43.375 34.1562C43.7917 34.1562 44.25 34.2395 44.75 34.4062C45.1667 34.573 45.5833 34.6562 46 34.6562C46.5833 34.573 47 34.573 47.25 34.6562C47.5 34.7395 47.75 34.823 48 34.9062C48.3333 34.7395 48.7083 34.6562 49.125 34.6562C49.4583 34.573 49.7917 34.448 50.125 34.2812C50.5417 34.1145 50.875 34.1145 51.125 34.2812C51.375 34.3645 51.7083 34.4062 52.125 34.4062C52.5417 34.4062 52.9583 34.323 53.375 34.1562C53.7917 33.9895 54.1667 33.8645 54.5 33.7812C54.9167 33.7812 55.3333 33.823 55.75 33.9062C56.1667 33.9895 56.5833 34.0312 57 34.0312C58.0833 34.1145 59.1667 34.0312 60.25 33.7812C61.25 33.5312 62.2083 33.4895 63.125 33.6562C63.5417 33.6562 63.9583 33.7395 64.375 33.9062C64.7083 33.9895 65.0833 34.0312 65.5 34.0312C65.8333 34.0312 66.1667 33.9895 66.5 33.9062C66.75 33.7395 67.0833 33.6145 67.5 33.5312C68.25 33.3645 69.2083 33.323 70.375 33.4062C71.5417 33.4062 72.7083 33.4062 73.875 33.4062C75.375 33.4895 76.9583 33.573 78.625 33.6562C80.2083 33.7395 81.6667 33.6562 83 33.4062C84.75 33.073 86.1667 32.948 87.25 33.0313C88.3333 33.1145 89.3333 33.1145 90.25 33.0313C90.5 32.948 90.7917 32.8645 91.125 32.7813C91.375 32.6145 91.6667 32.4895 92 32.4063C92.5833 32.2395 93 32.1145 93.25 32.0313C93.4167 31.948 93.5833 31.9063 93.75 31.9063Z" fill="white"/>
<path d="M93.75 63.8125C94.4167 63.9792 94.8333 64.3125 95 64.8125C95.25 65.2292 95.625 65.6458 96.125 66.0625C96.125 66.3125 96.0417 66.6042 95.875 66.9375C95.7917 67.1875 95.75 67.4792 95.75 67.8125C95.6667 68.0625 95.6667 68.3542 95.75 68.6875C95.8333 69.0208 95.875 69.3958 95.875 69.8125C95.875 70.0625 95.8333 70.3125 95.75 70.5625C95.6667 70.8125 95.625 71.0625 95.625 71.3125C95.625 71.9792 95.625 72.6458 95.625 73.3125C95.7083 73.9792 95.75 74.7292 95.75 75.5625C95.75 75.9792 95.75 76.3958 95.75 76.8125C95.8333 77.1458 95.75 77.5208 95.5 77.9375C95.6667 78.6042 95.8333 79.3125 96 80.0625C96.25 80.7292 96.375 81.4792 96.375 82.3125C96.0417 82.7292 95.625 83.0208 95.125 83.1875C94.625 83.2708 94.25 83.5208 94 83.9375C93.25 84.0208 92.4167 84.0625 91.5 84.0625C90.5833 83.9792 89.6667 84.0208 88.75 84.1875C88.5 84.1875 88.25 84.2292 88 84.3125C87.6667 84.3125 87.375 84.3125 87.125 84.3125C86.7917 84.3958 86.5 84.4792 86.25 84.5625C85.9167 84.6458 85.5833 84.6875 85.25 84.6875C85 84.6875 84.75 84.6458 84.5 84.5625C84.1667 84.4792 83.875 84.4375 83.625 84.4375C83.2083 84.4375 82.7917 84.5208 82.375 84.6875C81.875 84.7708 81.4167 84.8125 81 84.8125C80.4167 84.8125 79.9167 84.7708 79.5 84.6875C79.0833 84.6042 78.6667 84.5625 78.25 84.5625C77.3333 84.5625 76.4167 84.6042 75.5 84.6875C74.5 84.7708 73.5417 84.8125 72.625 84.8125C72.2083 84.8125 71.7917 84.7708 71.375 84.6875C70.875 84.6042 70.4167 84.5625 70 84.5625C69.6667 84.5625 69.4167 84.6042 69.25 84.6875C69 84.7708 68.75 84.8542 68.5 84.9375C67.5833 85.1042 67 85.1458 66.75 85.0625C66.5 84.8958 66.2083 84.7708 65.875 84.6875C65.7083 84.6875 65.4167 84.7292 65 84.8125C64.5 84.8958 64 84.8958 63.5 84.8125C62.6667 84.8125 61.5833 84.8125 60.25 84.8125C58.8333 84.7292 57.5833 84.6875 56.5 84.6875C55.9167 84.6875 55.375 84.6458 54.875 84.5625C54.375 84.3958 53.875 84.5625 53.375 85.0625C51.7083 84.7292 50.4167 84.5208 49.5 84.4375C48.5833 84.3542 47.2917 84.4375 45.625 84.6875C45.375 84.3542 45.0833 84.2292 44.75 84.3125C44.4167 84.3125 44.0833 84.2708 43.75 84.1875C42.5 84.1042 41.2083 84.1042 39.875 84.1875C39.125 84.1875 38.4167 84.1458 37.75 84.0625C37.0833 83.9792 36.4167 83.9792 35.75 84.0625C35.25 84.0625 34.9167 84.1042 34.75 84.1875C34.5833 84.2708 34.4167 84.2708 34.25 84.1875C32.5833 84.3542 31.2083 84.3958 30.125 84.3125C29.0417 84.1458 28.0417 84.0625 27.125 84.0625C26.7083 84.0625 26.3333 84.1042 26 84.1875C25.6667 84.2708 25.3333 84.2708 25 84.1875C24.4167 84.1875 23.9167 84.1875 23.5 84.1875C23.0833 84.1042 22.5417 84.1042 21.875 84.1875C20.875 84.1875 19.7917 84.1875 18.625 84.1875C17.4583 84.1875 16.5833 84.4792 16 85.0625C15.5833 84.7292 15.0833 84.6458 14.5 84.8125C13.9167 84.9792 13.4167 85.0208 13 84.9375C12.75 84.9375 12.2917 84.9375 11.625 84.9375C10.9583 84.8542 10.375 84.7708 9.875 84.6875C9.625 84.6875 9.375 84.6458 9.125 84.5625C8.875 84.4792 8.66667 84.4375 8.5 84.4375C8.08333 84.4375 7.625 84.5625 7.125 84.8125C6.54167 85.0625 5.91667 84.9792 5.25 84.5625C4.75 84.8125 4.33333 85.1042 4 85.4375C3.66667 85.6875 3.29167 85.7708 2.875 85.6875C2.125 85.6042 1.58333 85.2708 1.25 84.6875C0.916667 84.0208 0.666667 83.2708 0.5 82.4375C0.5 81.9375 0.416667 81.6458 0.25 81.5625C0.0833333 81.3958 0 81.2292 0 81.0625C0 80.7292 0.0833333 80.4375 0.25 80.1875C0.333333 79.8542 0.416667 79.5625 0.5 79.3125C0.583333 78.8125 0.625 78.2708 0.625 77.6875C0.541667 77.1042 0.666667 76.7292 1 76.5625C0.916667 75.8958 0.833333 75.2708 0.75 74.6875C0.583333 74.0208 0.5 73.3542 0.5 72.6875C0.5 72.4375 0.583333 72.2292 0.75 72.0625C0.833333 71.8958 0.875 71.6458 0.875 71.3125C0.958333 71.0625 0.916667 70.8542 0.75 70.6875C0.583333 70.4375 0.583333 70.1875 0.75 69.9375C1.08333 69.5208 1.33333 69.1042 1.5 68.6875C1.66667 68.2708 1.83333 67.8542 2 67.4375C2.41667 67.1875 2.91667 67.0625 3.5 67.0625C4 66.9792 4.54167 66.8958 5.125 66.8125C5.70833 66.8125 6.29167 66.8125 6.875 66.8125C7.375 66.7292 7.875 66.6875 8.375 66.6875C9.04167 66.7708 9.66667 66.8958 10.25 67.0625C10.8333 67.1458 11.4583 67.1875 12.125 67.1875C12.875 67.2708 13.5833 67.2292 14.25 67.0625C14.8333 66.8125 15.4167 66.8958 16 67.3125C16.5 67.1458 16.875 67.0208 17.125 66.9375C17.375 66.7708 17.7083 66.8542 18.125 67.1875C18.7917 66.7708 19.4167 66.6042 20 66.6875C20.5833 66.7708 21.2917 66.8125 22.125 66.8125C22.7917 66.8125 23.5417 66.8125 24.375 66.8125C25.125 66.8125 25.9167 66.8542 26.75 66.9375C27.5833 66.9375 28.1667 66.9792 28.5 67.0625C28.75 67.1458 28.9583 67.1875 29.125 67.1875C30.125 66.9375 31.0417 66.8125 31.875 66.8125C32.625 66.8125 33.2917 66.6458 33.875 66.3125C34.7083 66.4792 35.2917 66.5208 35.625 66.4375C35.875 66.3542 36.0833 66.3125 36.25 66.3125C36.6667 66.3125 37.0833 66.3542 37.5 66.4375C37.8333 66.5208 38.2083 66.5208 38.625 66.4375C38.875 66.2708 39.2083 66.2292 39.625 66.3125C39.9583 66.3125 40.2917 66.2708 40.625 66.1875C41.5417 66.3542 42.1667 66.3958 42.5 66.3125C42.75 66.1458 43.0417 66.0625 43.375 66.0625C43.7917 66.0625 44.25 66.1458 44.75 66.3125C45.1667 66.4792 45.5833 66.5625 46 66.5625C46.5833 66.4792 47 66.4792 47.25 66.5625C47.5 66.6458 47.75 66.7292 48 66.8125C48.3333 66.6458 48.7083 66.5625 49.125 66.5625C49.4583 66.4792 49.7917 66.3542 50.125 66.1875C50.5417 66.0208 50.875 66.0208 51.125 66.1875C51.375 66.2708 51.7083 66.3125 52.125 66.3125C52.5417 66.3125 52.9583 66.2292 53.375 66.0625C53.7917 65.8958 54.1667 65.7708 54.5 65.6875C54.9167 65.6875 55.3333 65.7292 55.75 65.8125C56.1667 65.8958 56.5833 65.9375 57 65.9375C58.0833 66.0208 59.1667 65.9375 60.25 65.6875C61.25 65.4375 62.2083 65.3958 63.125 65.5625C63.5417 65.5625 63.9583 65.6458 64.375 65.8125C64.7083 65.8958 65.0833 65.9375 65.5 65.9375C65.8333 65.9375 66.1667 65.8958 66.5 65.8125C66.75 65.6458 67.0833 65.5208 67.5 65.4375C68.25 65.2708 69.2083 65.2292 70.375 65.3125C71.5417 65.3125 72.7083 65.3125 73.875 65.3125C75.375 65.3958 76.9583 65.4792 78.625 65.5625C80.2083 65.6458 81.6667 65.5625 83 65.3125C84.75 64.9792 86.1667 64.8542 87.25 64.9375C88.3333 65.0208 89.3333 65.0208 90.25 64.9375C90.5 64.8542 90.7917 64.7708 91.125 64.6875C91.375 64.5208 91.6667 64.3958 92 64.3125C92.5833 64.1458 93 64.0208 93.25 63.9375C93.4167 63.8542 93.5833 63.8125 93.75 63.8125Z" fill="white"/>
</svg>
